<svg xmlns="http://www.w3.org/2000/svg" viewBox="0 0 64 64" role="img" aria-labelledby="title desc">
  <title id="title">Amazon</title>
  <desc id="desc">Compact Amazon-style marketplace icon</desc>
  <rect width="64" height="64" rx="14" fill="#fff7ed"/>
  <path
    d="M37.7 38.8c-1.6 1.2-3.5 1.8-5.7 1.8-4.7 0-8-3.2-8-7.8 0-5.2 3.8-8 10.9-8h2.2v-1.5c0-2.4-1.4-3.7-4.1-3.7-2.2 0-4.3.7-6.5 2.1l-2-4.7c2.7-1.8 6-2.7 9.6-2.7 6.5 0 10 3 10 8.8v16.9h-5.8l-.6-2.2Zm-4.1-3.2c2.1 0 3.6-.9 4.5-2.5v-4h-2.2c-3.6 0-5.2 1.1-5.2 3.2 0 2 1.2 3.3 2.9 3.3Z"
    fill="#111827"
  />
  <path
    d="M17.6 44.8c8.6 4.6 20.3 4.3 28.5-1.2 1.3-.9 2.5.8 1.3 1.9-7.5 6.8-21.3 7.2-30.7 1.2-1.4-.9-.4-2.7.9-1.9Z"
    fill="#f59e0b"
  />
  <path
    d="M44.2 42.1c1.5-.2 5-.5 5.7.4.7.9-.8 4.1-1.5 5.4-.4.7-1.2.4-1.1-.3.2-1.3.8-3 .4-3.5-.4-.5-2.2-.4-3.5-.2-.8 0-.9-1.6 0-1.8Z"
    fill="#f59e0b"
  />
</svg>
