<?xml version="1.0" encoding="UTF-8"?>
<svg version="1.1" xmlns="http://www.w3.org/2000/svg" width="400" height="400">
<path d="M0 0 C132 0 264 0 400 0 C400 132 400 264 400 400 C268 400 136 400 0 400 C0 268 0 136 0 0 Z " fill="#FEFEFE" transform="translate(0,0)"/>
<path d="M0 0 C0 31.35 0 62.7 0 95 C-14.52 95 -29.04 95 -44 95 C-44.32087047 77.48136339 -44.32087047 77.48136339 -44.390625 70.00585938 C-44.43842741 64.90711768 -44.49493091 59.80952661 -44.60351562 54.71166992 C-44.69052906 50.60075493 -44.73829045 46.49107355 -44.75901794 42.3793087 C-44.77378526 40.81186178 -44.80262551 39.24448148 -44.84584045 37.67756081 C-45.17031159 25.42375555 -45.17031159 25.42375555 -42.36421204 22.00996399 C-40.28210854 20.67989183 -38.3244538 19.82219282 -36 19 C-35.0308667 18.45029541 -34.0617334 17.90059082 -33.06323242 17.33422852 C-32.16967041 16.85397217 -31.2761084 16.37371582 -30.35546875 15.87890625 C-29.34806641 15.33556641 -28.34066406 14.79222656 -27.30273438 14.23242188 C-26.27470703 13.68134766 -25.24667969 13.13027344 -24.1875 12.5625 C-22.13923951 11.45979033 -20.091062 10.35692651 -18.04296875 9.25390625 C-17.04700684 8.71910645 -16.05104492 8.18430664 -15.02490234 7.63330078 C-11.02766102 5.47498404 -7.05019549 3.28120197 -3.07543945 1.08178711 C-1 0 -1 0 0 0 Z " fill="#0181FD" transform="translate(291,112)"/>
<path d="M0 0 C14.52 0 29.04 0 44 0 C44 19.14 44 38.28 44 58 C29.48 58 14.96 58 0 58 C0 38.86 0 19.72 0 0 Z " fill="#013772" transform="translate(109,230)"/>
<path d="M0 0 C14.52 0 29.04 0 44 0 C44 18.81 44 37.62 44 57 C29.48 57 14.96 57 0 57 C0 38.19 0 19.38 0 0 Z " fill="#033870" transform="translate(247,231)"/>
<path d="M0 0 C14.52 0 29.04 0 44 0 C44 18.81 44 37.62 44 57 C29.48 57 14.96 57 0 57 C0 38.19 0 19.38 0 0 Z " fill="#013770" transform="translate(178,231)"/>
<path d="M0 0 C0 18.81 0 37.62 0 57 C-14.52 57 -29.04 57 -44 57 C-44 45.78 -44 34.56 -44 23 C-39.66875 20.69 -35.3375 18.38 -30.875 16 C-21.91992882 11.21821101 -13.00578856 6.4026781 -4.2734375 1.22265625 C-2 0 -2 0 0 0 Z " fill="#0580F7" transform="translate(222,150)"/>
<path d="M0 0 C3.48319213 1.39327685 6.65425986 2.78452888 9.95703125 4.50390625 C10.89796631 4.99342773 11.83890137 5.48294922 12.80834961 5.98730469 C13.79971924 6.50711914 14.79108887 7.02693359 15.8125 7.5625 C16.82900635 8.09391602 17.8455127 8.62533203 18.89282227 9.17285156 C27.35942434 13.61990179 35.69686409 18.25535091 44 23 C44 34.22 44 45.44 44 57 C29.48 57 14.96 57 0 57 C0 38.19 0 19.38 0 0 Z " fill="#0281FC" transform="translate(109,150)"/>
<path d="M0 0 C3.23401498 1.29360599 6.2328399 2.55907114 9.3125 4.125 C10.00988281 4.47820312 10.70726563 4.83140625 11.42578125 5.1953125 C11.94527344 5.46085938 12.46476562 5.72640625 13 6 C9.24738542 7.14175295 7.58058293 6.60183973 4 5 C3.34 5 2.68 5 2 5 C2.33 21.17 2.66 37.34 3 54 C15.54 54 28.08 54 41 54 C40.34 53.34 39.68 52.68 39 52 C38.34 52 37.68 52 37 52 C37 51.01 37 50.02 37 49 C38.32 49 39.64 49 41 49 C40.91944192 44.8741803 40.80657315 40.74987369 40.6875 36.625 C40.65366211 34.8615625 40.65366211 34.8615625 40.61914062 33.0625 C40.58369141 31.94101563 40.54824219 30.81953125 40.51171875 29.6640625 C40.48553467 28.62717285 40.45935059 27.5902832 40.43237305 26.52197266 C40.21834839 25.27359619 40.21834839 25.27359619 40 24 C39.01 23.34 38.02 22.68 37 22 C37.33 21.34 37.66 20.68 38 20 C39.98 20.99 41.96 21.98 44 23 C44 34.22 44 45.44 44 57 C29.48 57 14.96 57 0 57 C0 38.19 0 19.38 0 0 Z " fill="#1C7ED3" transform="translate(109,150)"/>
<path d="M0 0 C0.33 0 0.66 0 1 0 C1 31.35 1 62.7 1 95 C-13.52 95 -28.04 95 -43 95 C-43.32087047 77.48136339 -43.32087047 77.48136339 -43.390625 70.00585938 C-43.43842741 64.90711768 -43.49493091 59.80952661 -43.60351562 54.71166992 C-43.69052906 50.60075493 -43.73829045 46.49107355 -43.75901794 42.3793087 C-43.77378526 40.81186178 -43.80262551 39.24448148 -43.84584045 37.67756081 C-44.17160601 25.37487115 -44.17160601 25.37487115 -41.2668457 21.96615601 C-39.20489798 20.66276772 -37.29078315 19.81608539 -35 19 C-34.05125 18.38125 -33.1025 17.7625 -32.125 17.125 C-31.42375 16.75375 -30.7225 16.3825 -30 16 C-29.34 16.33 -28.68 16.66 -28 17 C-33.75 21 -33.75 21 -36 21 C-36 21.66 -36 22.32 -36 23 C-37.65 23.33 -39.3 23.66 -41 24 C-41 46.77 -41 69.54 -41 93 C-27.8 92.67 -14.6 92.34 -1 92 C-0.67 61.64 -0.34 31.28 0 0 Z " fill="#277EC8" transform="translate(290,112)"/>
<path d="M0 0 C14.52 0 29.04 0 44 0 C44 19.14 44 38.28 44 58 C29.48 58 14.96 58 0 58 C0 38.86 0 19.72 0 0 Z M3 2 C1.10864523 7.64866208 1.10864523 7.64866208 0.77294922 13.17919922 C0.77310028 14.15976288 0.77325134 15.14032654 0.77340698 16.15060425 C0.78372955 17.19145172 0.79405212 18.23229919 0.8046875 19.3046875 C0.8075174 20.38380402 0.81034729 21.46292053 0.81326294 22.57473755 C0.8244234 26.00827299 0.8495207 29.44154391 0.875 32.875 C0.88503513 35.20832956 0.89416005 37.54166322 0.90234375 39.875 C0.92264431 45.58351629 0.96180161 51.29146337 1 57 C14.53 57 28.06 57 42 57 C42 38.85 42 20.7 42 2 C29.13 2 16.26 2 3 2 Z " fill="#22486E" transform="translate(109,230)"/>
<path d="M0 0 C0.33 0 0.66 0 1 0 C1 19.14 1 38.28 1 58 C15.52 58 30.04 58 45 58 C45 39.52 45 21.04 45 2 C48.0688471 6.09179613 48.3747598 6.52201855 48.26464844 11.21166992 C48.24762878 12.24921921 48.23060913 13.28676849 48.21307373 14.35575867 C48.17885315 15.46941299 48.14463257 16.58306732 48.109375 17.73046875 C48.08530579 18.87663162 48.06123657 20.02279449 48.03643799 21.20368958 C47.98280876 23.62383721 47.921814 26.04383122 47.85400391 28.46362305 C47.75011929 32.18322892 47.66799875 35.90281986 47.58984375 39.62304688 C47.53511977 41.971384 47.47917247 44.31969301 47.421875 46.66796875 C47.38268951 48.34755928 47.38268951 48.34755928 47.3427124 50.06108093 C47.31308411 51.08917374 47.28345581 52.11726654 47.25292969 53.17651367 C47.22833679 54.08600266 47.2037439 54.99549164 47.17840576 55.93254089 C47 58 47 58 46 59 C44.55710213 59.09295815 43.10970215 59.11746513 41.66381836 59.11352539 C40.73001343 59.11340454 39.7962085 59.11328369 38.83410645 59.11315918 C37.84599976 59.10804321 36.85789307 59.10292725 35.83984375 59.09765625 C34.93657349 59.09664917 34.03330322 59.09564209 33.10266113 59.09460449 C29.71426126 59.08935512 26.32587941 59.07539398 22.9375 59.0625 C15.368125 59.041875 7.79875 59.02125 0 59 C0 39.53 0 20.06 0 0 Z " fill="#DCEFF8" transform="translate(108,230)"/>
<path d="M0 0 C1.48445129 1.13447571 1.48445129 1.13447571 3 3 C3.32279968 5.63859558 3.32279968 5.63859558 3.2487793 8.84838867 C3.22853195 10.0494072 3.20828461 11.25042572 3.18742371 12.48783875 C3.13138725 14.4332531 3.13138725 14.4332531 3.07421875 16.41796875 C3.04618083 17.75886872 3.01949092 19.09979751 2.99409485 20.44075012 C2.92367918 23.96747454 2.83495625 27.49350994 2.74243164 31.01971436 C2.65122519 34.61902479 2.57714721 38.21868468 2.50195312 41.81835938 C2.35318913 48.87955437 2.17583103 55.93921903 2 63 C-12.85 63 -27.7 63 -43 63 C-43 62.67 -43 62.34 -43 62 C-28.48 62 -13.96 62 1 62 C1 43.19 1 24.38 1 5 C-13.52 5 -28.04 5 -43 5 C-42.67 4.34 -42.34 3.68 -42 3 C-28.47 3 -14.94 3 -1 3 C-0.67 2.01 -0.34 1.02 0 0 Z " fill="#CADCEC" transform="translate(290,226)"/>
<path d="M0 0 C0 30.03 0 60.06 0 91 C-0.33 91 -0.66 91 -1 91 C-1.33 62.95 -1.66 34.9 -2 6 C-3.65 6 -5.3 6 -7 6 C-6.34 7.65 -5.68 9.3 -5 11 C-8 13 -8 13 -10.625 12.6875 C-13 12 -13 12 -14 11 C-16.00720923 11.28674418 -18.0085944 11.61866701 -20 12 C-20 12.66 -20 13.32 -20 14 C-22.64 14.33 -25.28 14.66 -28 15 C-23.30713807 11.31762491 -18.10226223 8.65369439 -12.875 5.8125 C-11.86050781 5.25369141 -10.84601563 4.69488281 -9.80078125 4.11914062 C-8.83269531 3.59126953 -7.86460937 3.06339844 -6.8671875 2.51953125 C-5.98144043 2.03589111 -5.09569336 1.55225098 -4.18310547 1.05395508 C-2 0 -2 0 0 0 Z " fill="#0D80E8" transform="translate(290,113)"/>
<path d="M0 0 C0.99 0.495 0.99 0.495 2 1 C3.02406522 6.06666826 3.14844463 11.09249744 3.14526367 16.24267578 C3.15030159 17.43185104 3.15030159 17.43185104 3.15544128 18.64505005 C3.16488019 21.24515379 3.16689038 23.84519273 3.16796875 26.4453125 C3.17118467 28.26179022 3.17454899 30.07826769 3.17805481 31.89474487 C3.18402725 35.69236858 3.18589649 39.48996959 3.18530273 43.28759766 C3.18520086 48.15099536 3.1988878 53.01424792 3.21607494 57.87761116 C3.22719356 61.62483387 3.22922204 65.37202136 3.22869301 69.11925888 C3.22987199 70.91259133 3.23428919 72.70592472 3.24202538 74.49924088 C3.25182872 77.00496897 3.24894662 79.51038002 3.24291992 82.01611328 C3.24853943 82.75390015 3.25415894 83.49168701 3.25994873 84.25183105 C3.23536494 88.27666705 2.78363887 91.37590315 1 95 C0.67 95 0.34 95 0 95 C0 63.65 0 32.3 0 0 Z " fill="#D1F7FE" transform="translate(291,112)"/>
<path d="M0 0 C1.2065625 0.0309375 1.2065625 0.0309375 2.4375 0.0625 C1.95141769 0.41605057 1.46533539 0.76960114 0.96452332 1.13386536 C-1.30145733 3.99580514 -0.96286596 6.30385397 -0.99487305 9.9206543 C-1.0050647 10.61359589 -1.01525635 11.30653748 -1.02575684 12.02047729 C-1.05593443 14.30930618 -1.06515963 16.5977169 -1.07421875 18.88671875 C-1.09106198 20.4742828 -1.10921174 22.06183348 -1.12861633 23.64936829 C-1.17616144 27.82666854 -1.20594142 32.00391461 -1.23205566 36.18139648 C-1.26183858 40.44460757 -1.30837664 44.70763187 -1.35351562 48.97070312 C-1.43959999 57.33454375 -1.50692222 65.6984013 -1.5625 74.0625 C-2.2225 74.0625 -2.8825 74.0625 -3.5625 74.0625 C-3.58562484 64.56175675 -3.6034158 55.06102312 -3.61431217 45.56025791 C-3.61954069 41.14912996 -3.62663777 36.7380212 -3.63793945 32.3269043 C-3.64876944 28.07348885 -3.65477707 23.82009191 -3.65737724 19.56666374 C-3.65923129 17.94028367 -3.66285152 16.31390466 -3.66823006 14.68753242 C-3.67544198 12.41739807 -3.67649088 10.14734115 -3.67602539 7.87719727 C-3.678246 6.58258072 -3.68046661 5.28796417 -3.68275452 3.95411682 C-3.52188584 0.08589965 -3.52188584 0.08589965 0 0 Z " fill="#E2FDFE" transform="translate(248.5625,132.9375)"/>
<path d="M0 0 C2.4375 0.75 2.4375 0.75 5 2 C5.8125 4.125 5.8125 4.125 6 6 C7.32 6 8.64 6 10 6 C10 6.66 10 7.32 10 8 C11.32 8 12.64 8 14 8 C14 8.66 14 9.32 14 10 C12.484375 11.2421875 12.484375 11.2421875 10 12 C7.22774845 10.8262169 4.82819404 9.63097724 2.25 8.125 C1.55261719 7.73441406 0.85523437 7.34382812 0.13671875 6.94140625 C-1.58360705 5.97519587 -3.29292098 4.9894264 -5 4 C-4.67 3.34 -4.34 2.68 -4 2 C-2.68 2 -1.36 2 0 2 C0 1.34 0 0.68 0 0 Z " fill="#F1FBF6" transform="translate(114,146)"/>
<path d="M0 0 C0.99 0.495 0.99 0.495 2 1 C2.01458252 1.80743652 2.02916504 2.61487305 2.04418945 3.44677734 C2.11846086 7.0900127 2.21519025 10.73231033 2.3125 14.375 C2.33505859 15.64601562 2.35761719 16.91703125 2.38085938 18.2265625 C2.41630859 19.43828125 2.45175781 20.65 2.48828125 21.8984375 C2.51446533 23.01911621 2.54064941 24.13979492 2.56762695 25.29443359 C2.71031006 26.18727051 2.85299316 27.08010742 3 28 C3.99 28.66 4.98 29.32 6 30 C5.67 30.99 5.34 31.98 5 33 C4.01 32.01 3.02 31.02 2 30 C2 31.32 2 32.64 2 34 C1.34 34 0.68 34 0 34 C0 22.78 0 11.56 0 0 Z " fill="#E3FDFE" transform="translate(153,173)"/>
<path d="M0 0 C4.99875355 0.83312559 7.71772212 1.65494306 12 4 C8.35014884 5.35179673 6.47171347 4.55313497 3 3 C2.34 3 1.68 3 1 3 C1 19.17 1 35.34 1 52 C0.67 52 0.34 52 0 52 C0 34.84 0 17.68 0 0 Z " fill="#1680E2" transform="translate(110,152)"/>
<path d="M0 0 C0.99 0.33 1.98 0.66 3 1 C1.515 3.475 1.515 3.475 0 6 C0.99 6 1.98 6 3 6 C3.33 5.01 3.66 4.02 4 3 C8.06277395 1.19432269 9.58852494 0.89713124 14 2 C8.06 5.3 2.12 8.6 -4 12 C-4.33 11.34 -4.66 10.68 -5 10 C-4.34 10 -3.68 10 -3 10 C-2.87625 8.906875 -2.7525 7.81375 -2.625 6.6875 C-2 3 -2 3 0 0 Z " fill="#E3F8FB" transform="translate(184,161)"/>
<path d="M0 0 C5.28137429 0.51525603 8.57221156 2.25477117 13 5 C13.33 3.68 13.66 2.36 14 1 C14.66 1.66 15.32 2.32 16 3 C15.625 5.625 15.625 5.625 15 8 C9.52067211 6.45454854 4.88570819 3.84456788 0 1 C0 0.67 0 0.34 0 0 Z " fill="#D1F4FD" transform="translate(129,160)"/>
<path d="M0 0 C0.33 0.99 0.66 1.98 1 3 C2.98 3 4.96 3 7 3 C-1.75 10 -1.75 10 -6 10 C-6 9.01 -6 8.02 -6 7 C-4.35 7 -2.7 7 -1 7 C-0.67 5.68 -0.34 4.36 0 3 C-0.66 2.67 -1.32 2.34 -2 2 C-1.34 2 -0.68 2 0 2 C0 1.34 0 0.68 0 0 Z " fill="#DBF7FB" transform="translate(215,146)"/>
<path d="M0 0 C1.2065625 0.0309375 1.2065625 0.0309375 2.4375 0.0625 C-0.32637192 2.21428156 -3.12783069 4.04620421 -6.1875 5.75 C-6.96351563 6.18699219 -7.73953125 6.62398437 -8.5390625 7.07421875 C-10.5625 8.0625 -10.5625 8.0625 -12.5625 8.0625 C-12 5.6875 -12 5.6875 -10.5625 3.0625 C-7 1.8125 -7 1.8125 -3.5625 1.0625 C-2.5625 0.0625 -2.5625 0.0625 0 0 Z " fill="#D2F3FD" transform="translate(269.5625,121.9375)"/>
<path d="M0 0 C0.66 0.33 1.32 0.66 2 1 C0.87926138 1.83905565 -0.24674547 2.67107831 -1.375 3.5 C-2.31472656 4.19609375 -2.31472656 4.19609375 -3.2734375 4.90625 C-5 6 -5 6 -7 6 C-7 6.66 -7 7.32 -7 8 C-9.64 8.33 -12.28 8.66 -15 9 C-11.94216092 6.59430669 -8.77542004 4.63810385 -5.375 2.75 C-4.41335938 2.20859375 -3.45171875 1.6671875 -2.4609375 1.109375 C-1.64882813 0.74328125 -0.83671875 0.3771875 0 0 Z " fill="#2482DB" transform="translate(277,119)"/>
<path d="M0 0 C0.99 0.33 1.98 0.66 3 1 C3.33 2.65 3.66 4.3 4 6 C1.36 5.67 -1.28 5.34 -4 5 C-4 4.01 -4 3.02 -4 2 C-2.68 2 -1.36 2 0 2 C0 1.34 0 0.68 0 0 Z " fill="#F8FAF3" transform="translate(220,144)"/>
<path d="M0 0 C1.65 0.33 3.3 0.66 5 1 C5 2.32 5 3.64 5 5 C3.02 5.66 1.04 6.32 -1 7 C-1.125 2.25 -1.125 2.25 0 0 Z " fill="#F7FBF7" transform="translate(177,224)"/>
<path d="M0 0 C0.66 0.33 1.32 0.66 2 1 C-0.09415076 4.14122613 -0.47580705 4.44601574 -3.8125 5.5625 C-4.52019531 5.80742187 -5.22789062 6.05234375 -5.95703125 6.3046875 C-6.96830078 6.64886719 -6.96830078 6.64886719 -8 7 C-9.66905395 7.66066719 -11.3369416 8.32438252 -13 9 C-13 8.34 -13 7.68 -13 7 C-10.88002166 5.80266012 -8.75486324 4.61701287 -6.625 3.4375 C-6.02171875 3.09525391 -5.4184375 2.75300781 -4.796875 2.40039062 C-3.23021759 1.53872905 -1.61709138 0.76281817 0 0 Z " fill="#2782D8" transform="translate(196,163)"/>
<path d="M0 0 C2.97 0 5.94 0 9 0 C9 0.99 9 1.98 9 3 C6.03 3.66 3.06 4.32 0 5 C0 3.35 0 1.7 0 0 Z " fill="#F7FBF2" transform="translate(200,153)"/>
<path d="M0 0 C0 1.98 0 3.96 0 6 C-0.99 6 -1.98 6 -3 6 C-3 6.66 -3 7.32 -3 8 C-3.66 8 -4.32 8 -5 8 C-5.1875 5.125 -5.1875 5.125 -5 2 C-2 0 -2 0 0 0 Z " fill="#0B7BF4" transform="translate(221,152)"/>
<path d="M0 0 C0 1.65 0 3.3 0 5 C-0.33 4.34 -0.66 3.68 -1 3 C-1.66 3.66 -2.32 4.32 -3 5 C-5.65537372 5.56520003 -8.29144713 5.73788198 -11 6 C-8.24029211 2.78034079 -4.3526723 0 0 0 Z " fill="#2585DE" transform="translate(290,113)"/>
<path d="M0 0 C-4.95 2.475 -4.95 2.475 -10 5 C-10 3.68 -10 2.36 -10 1 C-5.8922935 -0.58706842 -4.40767604 -1.10191901 0 0 Z " fill="#D4F1FD" transform="translate(198,163)"/>
<path d="M0 0 C2.0625 0.4375 2.0625 0.4375 4 1 C4.33 3.31 4.66 5.62 5 8 C4.01 8 3.02 8 2 8 C2 7.01 2 6.02 2 5 C1.01 5.495 1.01 5.495 0 6 C-0.38218767 4.34385343 -0.71395102 2.67542976 -1 1 C-0.67 0.67 -0.34 0.34 0 0 Z " fill="#F7FAF5" transform="translate(241,200)"/>
<path d="M0 0 C0 0.66 0 1.32 0 2 C1.32 2.33 2.64 2.66 4 3 C4 3.66 4 4.32 4 5 C0.7 4.34 -2.6 3.68 -6 3 C-2 0 -2 0 0 0 Z " fill="#1680E7" transform="translate(204,160)"/>
<path d="M0 0 C2.97 0.33 5.94 0.66 9 1 C9 2.32 9 3.64 9 5 C4.89198233 3.81323934 3.10551666 3.10551666 0 0 Z " fill="#DDF2FB" transform="translate(144,168)"/>
<path d="M0 0 C0.66 0 1.32 0 2 0 C2 0.66 2 1.32 2 2 C3.65 2.33 5.3 2.66 7 3 C7.33 3.99 7.66 4.98 8 6 C4.22454612 4.90931332 1.52956528 4.0916909 -1 1 C-0.67 0.67 -0.34 0.34 0 0 Z " fill="#D0F0FC" transform="translate(110,148)"/>
<path d="M0 0 C0 0.66 0 1.32 0 2 C-1.65 2.33 -3.3 2.66 -5 3 C-5 3.66 -5 4.32 -5 5 C-6.98 5.33 -8.96 5.66 -11 6 C-3.8 0 -3.8 0 0 0 Z " fill="#2580DE" transform="translate(215,154)"/>
<path d="M0 0 C0.99 0.66 1.98 1.32 3 2 C2.67 3.65 2.34 5.3 2 7 C0.68 6.67 -0.64 6.34 -2 6 C-2 5.34 -2 4.68 -2 4 C-1.34 4 -0.68 4 0 4 C0 2.68 0 1.36 0 0 Z " fill="#E7F8FB" transform="translate(142,161)"/>
</svg>
